<?xml version="1.0" standalone="no"?>
<!DOCTYPE svg PUBLIC "-//W3C//DTD SVG 20010904//EN"
 "http://www.w3.org/TR/2001/REC-SVG-20010904/DTD/svg10.dtd">
<svg version="1.0" xmlns="http://www.w3.org/2000/svg"
 width="500.000000pt" height="500.000000pt" viewBox="0 0 500.000000 500.000000"
 preserveAspectRatio="xMidYMid meet">
<metadata>
Created by potrace 1.11, written by Peter Selinger 2001-2013
</metadata>
<g transform="translate(0.000000,500.000000) scale(0.100000,-0.100000)"
fill="#000000" stroke="none">
<path d="M1389 3926 c-2 -2 -35 -7 -72 -10 -317 -29 -611 -164 -818 -376 -96
-99 -144 -166 -207 -290 -207 -412 -210 -1024 -5 -1435 166 -332 440 -550 813
-645 256 -65 623 -63 895 6 265 68 588 231 670 338 53 70 57 103 59 461 3 412
-6 467 -80 539 -69 67 -89 70 -547 74 -355 3 -415 1 -464 -13 -97 -28 -157
-115 -147 -214 8 -82 46 -130 121 -155 72 -23 88 -24 361 -25 l252 -1 0 -221
0 -220 -95 -44 c-106 -49 -242 -97 -325 -114 -30 -6 -66 -14 -80 -17 -52 -13
-306 -12 -375 1 -155 30 -279 92 -380 190 -93 90 -146 171 -195 295 -76 192
-98 521 -50 770 65 345 280 588 579 657 81 18 279 24 362 10 121 -19 235 -76
313 -154 27 -26 82 -95 122 -153 105 -150 117 -163 170 -189 127 -64 284 -11
349 117 20 40 24 59 21 123 -2 64 -9 90 -42 160 -128 273 -420 464 -804 525
-44 7 -395 16 -401 10z"/>
<path d="M4503 3921 c-91 -23 -161 -107 -181 -219 -5 -31 -10 -404 -10 -885 0
-821 -3 -896 -34 -997 -51 -166 -152 -250 -309 -256 -123 -5 -198 22 -268 94
-45 47 -75 116 -111 258 -70 272 -111 324 -259 330 -94 4 -159 -22 -212 -84
-44 -52 -58 -109 -54 -221 11 -264 142 -537 325 -673 80 -60 219 -112 359
-135 25 -5 123 -8 216 -7 139 1 186 5 259 23 389 95 600 364 632 806 9 120 9
1655 0 1724 -19 152 -109 241 -250 247 -39 2 -86 -1 -103 -5z"/>
</g>
</svg>
